:FULLY-SPECIFIED
:FORCE-ALL-JOINTS-BE-3DOF
:DEGREES
272
root 8.31683 16.1465 -25.18 21.8791 69.412 19.4391
lfemur -25.0036 7.60022 -22.9241
ltibia 41.3756 0 0
lfoot -6.66663 -21.4074 0
ltoes 63.5621 0 0
rfemur -52.9677 -4.74431 13.2455
rtibia 82.629 0 0
rfoot 8.50827 -0.847354 0
rtoes -1.0292 0 0
lowerback 6.42139 -4.47855 -2.43569
upperback 1.48336 -6.13102 -1.75617
thorax -2.00321 -3.0248 0.0481258
lowerneck -5.34959 -11.1049 -4.61511
upperneck 0.684675 -14.6561 5.21141
head 1.91087 -7.24448 1.86228
lclavicle 3.20013e-14 1.21421e-14 0
lhumerus -45.1264 -35.3589 107.623
lradius 59.1975 0 0
lwrist 20.327 0 0
lhand 18.9294 14.8787 0
lfingers 7.12502 0 0
lthumb 43.5284 38.8686 0
rclavicle 3.20013e-14 1.21421e-14 0
rhumerus -53.7933 2.18893 -94.8074
rradius 44.3259 0 0
rwrist 25.217 0 0
rhand -24.4839 3.86363 0
rfingers 7.12502 0 0
rthumb 2.02289 -746.214 0
273
root 8.37817 16.1444 -25.1527 22.48 70.1538 20.4717
lfemur -24.4797 7.2396 -23.0152
ltibia 41.5801 0 0
lfoot -6.45789 -22.0131 0
ltoes 63.5827 0 0
rfemur -53.9761 -5.1323 13.8942
rtibia 82.729 0 0
rfoot 7.87596 -0.616741 0
rtoes 0.155094 0 0
lowerback 6.59487 -4.55066 -2.56717
upperback 1.61361 -6.23459 -1.95632
thorax -1.96542 -3.07754 -0.0737434
lowerneck -5.15695 -11.2148 -4.73012
upperneck 0.664517 -14.8118 5.42609
head 1.9041 -7.31988 1.94975
lclavicle 3.18427e-14 1.21037e-14 0
lhumerus -44.8459 -35.5016 107.11
lradius 59.1462 0 0
lwrist 20.3217 0 0
lhand 19.3836 14.9985 0
lfingers 7.12502 0 0
lthumb 43.9567 38.8668 0
rclavicle 3.18427e-14 1.21037e-14 0
rhumerus -54.5067 3.05799 -96.0133
rradius 45.248 0 0
rwrist 24.2058 0 0
rhand -24.5702 3.70139 0
rfingers 7.12502 0 0
rthumb 1.93001 -746.297 0
274
root 8.4395 16.1423 -25.1255 23.0313 70.8426 21.4534
lfemur -23.9806 6.96001 -23.0939
ltibia 41.8329 0 0
lfoot -6.34822 -22.6063 0
ltoes 63.6522 0 0
rfemur -54.677 -5.40979 14.4999
rtibia 82.6074 0 0
rfoot 7.37167 -0.590177 0
rtoes 1.37596 0 0
lowerback 6.738 -4.61229 -2.71573
upperback 1.7394 -6.3233 -2.13178
thorax -1.91208 -3.12316 -0.164029
lowerneck -4.98008 -11.3206 -4.84023
upperneck 0.669695 -14.9622 5.62359
head 1.90668 -7.39287 2.03008
lclavicle 3.07285e-14 1.19908e-14 0
lhumerus -44.5846 -35.6402 106.647
lradius 59.1166 0 0
lwrist 20.3141 0 0
lhand 19.7519 15.0959 0
lfingers 7.12502 0 0
lthumb 44.3039 38.8645 0
rclavicle 3.07285e-14 1.19908e-14 0
rhumerus -55.2369 3.9752 -97.0583
rradius 46.1277 0 0
rwrist 23.439 0 0
rhand -24.7442 3.49961 0
rfingers 7.12502 0 0
rthumb 1.75858 -746.473 0
275
root 8.49337 16.1004 -25.0747 23.5759 71.5001 22.4472
lfemur -23.4864 6.75845 -23.1487
ltibia 42.1675 0 0
lfoot -6.33036 -23.2139 0
ltoes 63.708 0 0
rfemur -55.0587 -5.58702 15.0856
rtibia 82.2075 0 0
rfoot 6.92918 -0.794084 0
rtoes 2.81979 0 0
lowerback 6.8511 -4.66827 -2.88757
upperback 1.86565 -6.40351 -2.2889
thorax -1.83773 -3.16499 -0.225719
lowerneck -4.81249 -11.4209 -4.9549
upperneck 0.710955 -15.1065 5.80875
head 1.92274 -7.46275 2.1064
lclavicle 2.85002e-14 1.17716e-14 0
lhumerus -44.3273 -35.7724 106.213
lradius 59.1106 0 0
lwrist 20.3036 0 0
lhand 20.0553 15.1832 0
lfingers 7.12502 0 0
lthumb 44.5897 38.8683 0
rclavicle 2.85002e-14 1.17716e-14 0
rhumerus -56.0823 4.99795 -98.0329
rradius 47.0729 0 0
rwrist 22.8698 0 0
rhand -24.9839 3.22633 0
rfingers 7.12502 0 0
rthumb 1.52722 -746.752 0
276
root 8.54725 16.0584 -25.0238 24.1559 72.1459 23.5117
lfemur -22.9767 6.62477 -23.1693
ltibia 42.6079 0 0
lfoot -6.38668 -23.8582 0
ltoes 63.6826 0 0
rfemur -55.1498 -5.68962 15.6773
rtibia 81.5043 0 0
rfoot 6.47109 -1.22345 0
rtoes 4.6467 0 0
lowerback 6.93824 -4.72372 -3.08575
upperback 1.9973 -6.48211 -2.43633
thorax -1.73953 -3.20659 -0.265525
lowerneck -4.64698 -11.5139 -5.08214
upperneck 0.793837 -15.2436 5.98796
head 1.9545 -7.52871 2.18227
lclavicle 2.514e-14 1.14253e-14 0
lhumerus -44.0592 -35.898 105.784
lradius 59.1269 0 0
lwrist 20.2898 0 0
lhand 20.3224 15.2737 0
lfingers 7.12502 0 0
lthumb 44.8411 38.8838 0
rclavicle 2.514e-14 1.14253e-14 0
rhumerus -57.1207 6.17102 -99.0317
rradius 48.1896 0 0
rwrist 22.4184 0 0
rhand -25.2515 2.85501 0
rfingers 7.12502 0 0
rthumb 1.26896 -747.131 0
277
root 8.60112 16.0165 -24.973 24.7636 72.7754 24.6335
lfemur -22.4547 6.55473 -23.1581
ltibia 43.1422 0 0
lfoot -6.51149 -24.532 0
ltoes 63.5834 0 0
rfemur -54.979 -5.72612 16.2732
rtibia 80.5284 0 0
rfoot 6.00096 -1.85292 0
rtoes 6.80809 0 0
lowerback 7.0019 -4.77806 -3.30712
upperback 2.13351 -6.5584 -2.5745
thorax -1.62012 -3.24756 -0.285428
lowerneck -4.48416 -11.5999 -5.21943
upperneck 0.913078 -15.3733 6.16148
head 2.00002 -7.59077 2.25746
lclavicle 2.07681e-14 1.09643e-14 0
lhumerus -43.7829 -36.019 105.362
lradius 59.1631 0 0
lwrist 20.2728 0 0
lhand 20.5549 15.3661 0
lfingers 7.12502 0 0
lthumb 45.0598 38.9095 0
rclavicle 2.07681e-14 1.09643e-14 0
rhumerus -58.3221 7.47644 -100.042
rradius 49.4582 0 0
rwrist 22.0704 0 0
rhand -25.5403 2.39464 0
rfingers 7.12502 0 0
rthumb 0.990268 -747.6 0
278
root 8.655 15.9745 -24.9221 25.3911 73.3836 25.7991
lfemur -21.9234 6.54405 -23.1176
ltibia 43.7586 0 0
lfoot -6.69909 -25.2277 0
ltoes 63.4175 0 0
rfemur -54.575 -5.70507 16.8714
rtibia 79.3104 0 0
rfoot 5.52238 -2.65713 0
rtoes 9.25539 0 0
lowerback 7.04455 -4.83069 -3.54854
upperback 2.27346 -6.6317 -2.70386
thorax -1.48215 -3.28747 -0.287412
lowerneck -4.32463 -11.679 -5.36423
upperneck 1.06341 -15.4957 6.32957
head 2.05734 -7.649 2.33172
lclavicle 1.55046e-14 1.04011e-14 0
lhumerus -43.5015 -36.1371 104.948
lradius 59.2171 0 0
lwrist 20.2528 0 0
lhand 20.7544 15.4589 0
lfingers 7.12502 0 0
lthumb 45.2472 38.9435 0
rclavicle 1.55046e-14 1.04011e-14 0
rhumerus -59.6566 8.89623 -101.053
rradius 50.8596 0 0
rwrist 21.8115 0 0
rhand -25.8436 1.85417 0
rfingers 7.12502 0 0
rthumb 0.697624 -748.151 0
279
root 8.70887 15.9326 -24.8713 26.0307 73.9658 26.9951
lfemur -21.3862 6.5885 -23.0504
ltibia 44.4452 0 0
lfoot -6.94376 -25.9381 0
ltoes 63.1922 0 0
rfemur -53.9665 -5.63503 17.4702
rtibia 77.8807 0 0
rfoot 5.03894 -3.61072 0
rtoes 11.94 0 0
lowerback 7.06867 -4.881 -3.80686
upperback 2.41634 -6.7013 -2.82487
thorax -1.32829 -3.32592 -0.27346
lowerneck -4.169 -11.7516 -5.51398
upperneck 1.23958 -15.6108 6.49247
head 2.1245 -7.70342 2.40484
lclavicle 9.46993e-15 9.74794e-15 0
lhumerus -43.2178 -36.2544 104.545
lradius 59.2866 0 0
lwrist 20.2301 0 0
lhand 20.9225 15.5509 0
lfingers 7.12502 0 0
lthumb 45.405 38.9843 0
rclavicle 9.46993e-15 9.74794e-15 0
rhumerus -61.0942 10.4124 -102.05
rradius 52.3745 0 0
rwrist 21.6273 0 0
rhand -26.1547 1.24256 0
rfingers 7.12502 0 0
rthumb 0.397503 -748.773 0
280
root 8.76275 15.8906 -24.8204 26.6746 74.5172 28.208
lfemur -20.8459 6.6838 -22.959
ltibia 45.19 0 0
lfoot -7.23981 -26.6556 0
ltoes 62.9147 0 0
rfemur -53.1822 -5.52453 18.0677
rtibia 76.2699 0 0
rfoot 4.55421 -4.68834 0
rtoes 14.8133 0 0
lowerback 7.07673 -4.92841 -4.07894
upperback 2.5613 -6.76651 -2.93797
thorax -1.16117 -3.36249 -0.245555
lowerneck -4.01788 -11.8177 -5.66617
upperneck 1.43632 -15.7184 6.65043
head 2.19955 -7.75408 2.47657
lclavicle 2.78418e-15 9.01738e-15 0
lhumerus -42.9346 -36.3727 104.154
lradius 59.3692 0 0
lwrist 20.2048 0 0
lhand 21.0609 15.6406 0
lfingers 7.12502 0 0
lthumb 45.5346 39.0302 0
rclavicle 2.78418e-15 9.01738e-15 0
rhumerus -62.6048 12.0071 -103.022
rradius 53.9834 0 0
rwrist 21.5035 0 0
rhand -26.4669 0.568783 0
rfingers 7.12502 0 0
rthumb 0.0963841 -749.459 0
281
root 8.81662 15.8487 -24.7696 27.3148 75.0329 29.4245
lfemur -20.3059 6.8257 -22.8458
ltibia 45.9811 0 0
lfoot -7.58153 -27.3729 0
ltoes 62.5922 0 0
rfemur -52.2508 -5.38214 18.6622
rtibia 74.5085 0 0
rfoot 4.07178 -5.86463 0
rtoes 17.8268 0 0
lowerback 7.0712 -4.97232 -4.36164
upperback 2.70753 -6.82663 -3.04362
thorax -0.983442 -3.39676 -0.205681
lowerneck -3.87189 -11.8777 -5.81824
upperneck 1.64837 -15.8186 6.80371
head 2.28054 -7.80103 2.5467
lclavicle -4.43241e-15 8.22182e-15 0
lhumerus -42.6547 -36.494 103.776
lradius 59.4626 0 0
lwrist 20.177 0 0
lhand 21.1712 15.7266 0
lfingers 7.12502 0 0
lthumb 45.6377 39.0795 0
rclavicle -4.43241e-15 8.22182e-15 0
rhumerus -64.1585 13.6621 -103.957
rradius 55.6671 0 0
rwrist 21.4257 0 0
rhand -26.7734 -0.158197 0
rfingers 7.12502 0 0
rthumb -0.199256 -750.197 0
282
root 8.87049 15.8068 -24.7188 27.9438 75.5082 30.631
lfemur -19.7691 7.00995 -22.7133
ltibia 46.8068 0 0
lfoot -7.96323 -28.0826 0
ltoes 62.232 0 0
rfemur -51.2011 -5.21639 19.2518
rtibia 72.6272 0 0
rfoot 3.59522 -7.11422 0
rtoes 20.9318 0 0
lowerback 7.05455 -5.01214 -4.65182
upperback 2.8542 -6.88097 -3.14225
thorax -0.797766 -3.42834 -0.155819
lowerneck -3.73162 -11.9317 -5.96766
upperneck 1.87045 -15.9114 6.95256
head 2.3655 -7.8443 2.61497
lclavicle -1.20596e-14 7.37368e-15 0
lhumerus -42.381 -36.6201 103.414
lradius 59.5648 0 0
lwrist 20.147 0 0
lhand 21.2549 15.8076 0
lfingers 7.12502 0 0
lthumb 45.7157 39.1306 0
rclavicle -1.20596e-14 7.37368e-15 0
rhumerus -65.7252 15.3597 -104.842
rradius 57.4063 0 0
rwrist 21.3797 0 0
rhand -27.0675 -0.929414 0
rfingers 7.12502 0 0
rthumb -0.482941 -750.979 0
283
root 8.92437 15.7648 -24.6679 28.5535 75.9383 31.8141
lfemur -19.2388 7.23229 -22.5641
ltibia 47.655 0 0
lfoot -8.37918 -28.7772 0
ltoes 61.8413 0 0
rfemur -50.0616 -5.03583 19.8347
rtibia 70.6563 0 0
rfoot 3.12812 -8.41177 0
rtoes 24.0798 0 0
lowerback 7.02925 -5.04726 -4.94633
upperback 3.00049 -6.92883 -3.23432
thorax -0.606788 -3.4568 -0.0979539
lowerneck -3.59769 -11.9799 -6.11189
upperneck 2.09732 -15.9966 7.09723
head 2.4525 -7.88395 2.68117
lclavicle -1.99772e-14 6.48539e-15 0
lhumerus -42.1164 -36.7529 103.068
lradius 59.6732 0 0
lwrist 20.115 0 0
lhand 21.3138 15.8821 0
lfingers 7.12502 0 0
lthumb 45.7703 39.1819 0
rclavicle -1.99772e-14 6.48539e-15 0
rhumerus -67.2749 17.0818 -105.664
rradius 59.1817 0 0
rwrist 21.3511 0 0
rhand -27.3425 -1.73591 0
rfingers 7.12502 0 0
rthumb -0.748194 -751.796 0
284
root 8.97824 15.7229 -24.6171 29.1363 76.3184 32.9605
lfemur -18.7181 7.48846 -22.4007
ltibia 48.514 0 0
lfoot -8.8237 -29.4493 0
ltoes 61.4274 0 0
rfemur -48.8611 -4.84901 20.4092
rtibia 68.6265 0 0
rfoot 2.67407 -9.7319 0
rtoes 27.2222 0 0
lowerback 6.99779 -5.07708 -5.24203
upperback 3.14557 -6.96951 -3.32028
thorax -0.413159 -3.48173 -0.0340676
lowerneck -3.47071 -12.0226 -6.24838
upperneck 2.3237 -16.0743 7.23797
head 2.53956 -7.92001 2.74506
lclavicle -2.80649e-14 5.56937e-15 0
lhumerus -41.8637 -36.8945 102.74
lradius 59.7857 0 0
lwrist 20.0811 0 0
lhand 21.3495 15.9488 0
lfingers 7.12502 0 0
lthumb 45.803 39.2316 0
rclavicle -2.80649e-14 5.56937e-15 0
rhumerus -68.7778 18.8104 -106.412
rradius 60.9739 0 0
rwrist 21.3255 0 0
rhand -27.5917 -2.56871 0
rfingers 7.12502 0 0
rthumb -0.988537 -752.638 0
285
root 9.03212 15.6809 -24.5662 29.6844 76.6436 34.0566
lfemur -18.21 7.7742 -22.2256
ltibia 49.3718 0 0
lfoot -9.29108 -30.0916 0
ltoes 60.9974 0 0
rfemur -47.6284 -4.66448 20.9733
rtibia 66.5682 0 0
rfoot 2.23663 -11.0493 0
rtoes 30.3103 0 0
lowerback 6.96263 -5.10103 -5.53578
upperback 3.28862 -7.00233 -3.40057
thorax -0.219528 -3.50271 0.0338563
lowerneck -3.35129 -12.0599 -6.37461
upperneck 2.54434 -16.1444 7.37503
head 2.62473 -7.95253 2.80641
lclavicle -3.62025e-14 4.63806e-15 0
lhumerus -41.6257 -37.0465 102.433
lradius 59.9 0 0
lwrist 20.0456 0 0
lhand 21.3635 16.0062 0
lfingers 7.12502 0 0
lthumb 45.8154 39.2781 0
rclavicle -3.62025e-14 4.63806e-15 0
rhumerus -70.2037 20.5275 -107.074
rradius 62.7636 0 0
rwrist 21.2886 0 0
rhand -27.8084 -3.41885 0
rfingers 7.12502 0 0
rthumb -1.19749 -753.495 0
